<?xml version="1.0" standalone="no"?>
<!DOCTYPE svg PUBLIC "-//W3C//DTD SVG 20010904//EN"
 "http://www.w3.org/TR/2001/REC-SVG-20010904/DTD/svg10.dtd">
<svg version="1.0" xmlns="http://www.w3.org/2000/svg"
 width="700.000000pt" height="700.000000pt" viewBox="0 0 700.000000 700.000000"
 preserveAspectRatio="xMidYMid meet">
<metadata>
Created by potrace 1.14, written by Peter Selinger 2001-2017
</metadata>
<g transform="translate(0.000000,700.000000) scale(0.100000,-0.100000)"
fill="#000000" stroke="none">
<path d="M2160 6949 c-385 -208 -703 -541 -899 -942 -113 -232 -159 -407 -168
-633 -7 -180 5 -261 77 -554 123 -494 267 -871 481 -1262 70 -127 73 -132 81
-103 54 203 111 524 142 790 14 121 37 266 50 321 23 91 153 514 161 523 2 2
61 -8 132 -22 180 -36 360 -51 533 -43 463 22 1146 169 1595 343 120 47 334
150 417 201 l67 41 0 -137 c0 -160 13 -243 81 -511 56 -226 104 -450 97 -457
-2 -2 -27 11 -55 30 -112 75 -243 104 -396 87 -99 -11 -515 -99 -599 -127 -88
-29 -134 -89 -88 -114 32 -16 165 -12 272 10 55 11 170 43 257 71 208 66 309
83 406 70 118 -17 226 -64 226 -99 0 -29 75 -279 125 -417 26 -72 81 -210 122
-308 65 -153 77 -176 87 -160 37 57 114 246 179 444 41 124 86 254 99 290 43
111 127 388 168 553 77 306 106 526 97 750 -10 284 -75 457 -239 640 -65 73
-183 168 -252 203 l-51 26 130 124 130 124 -70 -34 c-75 -37 -207 -87 -230
-87 -9 0 8 31 42 78 30 42 68 103 84 135 34 67 74 167 62 152 -5 -5 -36 -43
-68 -84 -52 -64 -168 -171 -186 -171 -3 0 -22 24 -41 53 -47 69 -120 149 -191
209 l-58 48 -1357 0 -1357 0 -95 -51z"/>
<path d="M2261 4619 c-103 -17 -218 -77 -316 -164 l-40 -35 65 34 c197 106
317 107 632 7 87 -28 202 -60 257 -71 107 -22 240 -26 272 -10 46 25 0 85 -88
114 -79 26 -497 115 -590 126 -100 11 -117 11 -192 -1z"/>
<path d="M2404 4250 c-165 -23 -271 -80 -295 -159 -9 -32 -8 -43 7 -72 l19
-34 5 52 c6 57 26 85 80 113 44 23 173 50 235 50 l47 0 -30 -25 c-90 -76 -95
-222 -10 -307 l38 -38 -29 0 c-56 0 -133 20 -208 55 -70 32 -75 33 -55 12 37
-39 125 -76 204 -86 40 -5 165 -12 278 -15 l205 -6 40 26 c22 14 31 22 20 18
-11 -5 -76 -9 -145 -11 -98 -3 -121 -1 -105 8 55 32 95 89 110 156 9 45 -18
134 -54 172 -16 17 -25 31 -21 31 32 0 177 -56 216 -83 55 -38 94 -102 94
-156 l1 -36 14 25 c45 79 -5 169 -129 232 -125 63 -374 100 -532 78z m332 -88
c23 -18 44 -53 44 -71 0 -17 -30 -13 -37 5 -3 8 -12 13 -19 10 -8 -3 -11 0 -7
10 3 8 -5 26 -17 40 -22 22 -22 24 -4 24 10 0 29 -8 40 -18z m-235 -289 c13
-16 12 -17 -3 -4 -10 7 -18 15 -18 17 0 8 8 3 21 -13z"/>
<path d="M4350 4251 c-202 -22 -387 -109 -421 -198 -13 -35 -10 -84 6 -113
l14 -25 1 34 c1 102 93 184 255 227 67 18 67 18 34 -17 -43 -46 -64 -128 -49
-187 13 -55 49 -106 94 -133 l31 -20 -125 4 c-69 1 -134 6 -145 11 -11 4 -2
-4 20 -18 l40 -26 205 6 c113 3 238 10 278 15 79 10 167 47 204 86 20 21 15
20 -55 -12 -75 -35 -152 -55 -208 -55 l-29 0 38 39 c85 88 80 230 -10 306
l-30 25 47 0 c62 0 191 -27 235 -50 54 -28 74 -56 80 -113 l5 -52 19 34 c44
83 -46 179 -205 215 -82 19 -233 27 -329 17z m181 -99 c24 -21 30 -34 27 -57
l-3 -30 -22 24 c-13 14 -26 20 -35 15 -7 -4 -10 -4 -6 0 4 5 -2 23 -13 42 -18
34 -18 34 1 34 11 0 34 -12 51 -28z m-235 -289 c-7 -7 -26 7 -26 19 0 6 6 6
15 -2 9 -7 13 -15 11 -17z"/>
<path d="M5084 808 c-17 -13 -62 -53 -100 -90 -150 -146 -472 -397 -783 -612
l-153 -106 1471 0 c809 0 1471 4 1471 8 0 5 -22 46 -50 92 -132 220 -247 329
-454 435 -218 110 -430 157 -956 211 -91 9 -168 21 -171 26 -4 6 -219 58 -242
58 -2 0 -17 -10 -33 -22z"/>
<path d="M1679 791 c-48 -9 -93 -21 -100 -27 -8 -6 -81 -19 -164 -28 -215 -24
-464 -63 -581 -91 -229 -54 -419 -156 -587 -314 -95 -89 -247 -287 -247 -321
0 -7 480 -10 1478 -10 l1477 1 -180 92 c-357 184 -627 369 -825 566 -107 107
-159 151 -173 150 -7 -1 -51 -9 -98 -18z"/>
</g>
</svg>
